<?xml version="1.0" encoding="utf-8"?>
<!-- Generator: Adobe Illustrator 22.0.1, SVG Export Plug-In . SVG Version: 6.00 Build 0)  -->
<svg version="1.1" id="Layer_1" xmlns="http://www.w3.org/2000/svg" xmlns:xlink="http://www.w3.org/1999/xlink" x="0px" y="0px"
	 viewBox="0 0 56.7 56.7" style="enable-background:new 0 0 56.7 56.7;" xml:space="preserve">
<style type="text/css">
	.st0{fill:#FF584D;}
</style>
<title>Page 1</title>
<desc>Created with Sketch.</desc>
<g id="Page-1_1_">
	<g id="About---Company" transform="translate(-85.000000, -4032.000000)">
		<path id="Page-1" class="st0" d="M113.3,4055.1c-3.7,0-5.2,2.6-5.2,5.7c0,1,0.5,2.1,0.5,2.1c-0.2,0.1-0.5,0.5-0.4,1.1
			c0.1,1.2,0.6,1.5,0.9,1.5c0.1,1.1,1.8,2.6,2.2,2.8v1.9c-0.8,2.6-6.3,1.6-6.3,5.8h16.8c0-4.2-5.5-3.3-6.3-5.8v-1.9
			c0.4-0.2,2-1.7,2.2-2.8c0.3,0,0.8-0.3,0.9-1.5c0.1-0.7-0.2-1-0.4-1.1c0,0,0.5-1,0.5-2.1c0-2.3-0.8-4.3-2.6-4.3
			C116,4056.5,115.3,4055.1,113.3,4055.1 M98.6,4042.5h4.2c0,2.3,1.9,4.2,4.2,4.2h12.6c2.3,0,4.2-1.9,4.2-4.2h4.2
			c1.2,0,2.1,0.9,2.1,2.1v37.8c0,1.2-0.9,2.1-2.1,2.1H98.6c-1.2,0-2.1-0.9-2.1-2.1v-37.8C96.5,4043.4,97.5,4042.5,98.6,4042.5
			 M113.3,4036.2c1.2,0,2.1,0.9,2.1,2.1c0,1.2-0.9,2.1-2.1,2.1s-2.1-0.9-2.1-2.1C111.2,4037.1,112.2,4036.2,113.3,4036.2
			 M113.3,4032c-3.5,0-6.3,2.8-6.3,6.3h-4.2h-4.2c-3.5,0-6.3,2.8-6.3,6.3v37.8c0,3.5,2.8,6.3,6.3,6.3H128c3.5,0,6.3-2.8,6.3-6.3
			v-37.8c0-3.5-2.8-6.3-6.3-6.3h-4.2h-4.2C119.6,4034.8,116.8,4032,113.3,4032"/>
	</g>
</g>
</svg>
