<?xml version="1.0" encoding="utf-8"?>
<!-- Generator: Adobe Illustrator 22.0.1, SVG Export Plug-In . SVG Version: 6.00 Build 0)  -->
<svg version="1.1" id="Layer_1" xmlns="http://www.w3.org/2000/svg" xmlns:xlink="http://www.w3.org/1999/xlink" x="0px" y="0px"
	 viewBox="0 0 56.7 56.7" style="enable-background:new 0 0 56.7 56.7;" xml:space="preserve">
<style type="text/css">
	.st0{fill:#FF584D;}
</style>
<title>Page 1</title>
<desc>Created with Sketch.</desc>
<g id="Page-1_1_">
	<g id="About---Company" transform="translate(-80.000000, -3810.000000)">
		<path id="Page-1" class="st0" d="M108.3,3823.2c-5.1,0-9.2,3.1-9.2,8.5c0,2.3,1.3,4.1,1.3,4.1s-0.6,0.3-0.6,1.5c0,2.4,1.5,3,1.5,3
			c0.2,1.9,3.2,4.7,3.2,4.7v3.2c-1.6,4.8-11.3,1.6-11.3,12.7h30.2c0-11.1-9.7-8-11.3-12.7v-3.2c0,0,3-2.8,3.2-4.7c0,0,1.5-1.1,1.5-3
			c0-1.3-0.6-1.5-0.6-1.5s1.1-2,1.1-3.9c0-3.9-1.9-6.8-5.2-6.8C112.1,3825.1,110.7,3823.2,108.3,3823.2 M123.5,3815.7
			c-4.2,0-6.8,2.9-7.4,6.7c3.1,1.6,5,5.2,5,9.6c0,1.4-0.3,2.7-0.7,3.8c0.1,0.5,0.2,1.1,0.2,1.7c0,4.7-4.7,9.3-4.7,9.3
			c1,0.4,4.3,2.1,5.7,2.9h15.1c0-9.9-8.1-7.1-9.4-11.3v-2.8c0.6-0.3,2.1-2.5,2.3-4.2c0.5,0,1.5-1.2,1.5-2.3c0-1.1-0.3-1.5-0.6-1.7
			c0,0,0.6-1.4,0.6-3.1c0-3.4-0.9-6.6-3.8-6.6C127.2,3817.6,126.4,3815.7,123.5,3815.7 M92.5,3815.7c-1.7,0-3,1.9-3,1.9
			c-9.9,0-4.4,15.8-7.3,18.1c0,0,1.8,2.2,7.3,2.2v1.9c-1.5,4-9.4,2.5-9.4,9.9h15.2c1.3-0.8,5.6-3,5.6-3c-1-1.1-2.5-3-3-4.4
			c-1.2-0.6-2.2-1.3-2.6-2.5v-1.9c0.4,0,1.4-0.1,1.8-0.2c-0.8-1.3-1.6-4.3-1.6-5.9c0-4.2,1.8-7.7,4.8-9.9
			C99.3,3818.4,97.3,3815.7,92.5,3815.7"/>
	</g>
</g>
</svg>
