<?xml version="1.0" encoding="utf-8"?>
<!-- Generator: Adobe Illustrator 22.0.1, SVG Export Plug-In . SVG Version: 6.00 Build 0)  -->
<svg version="1.1" id="Layer_1" xmlns="http://www.w3.org/2000/svg" xmlns:xlink="http://www.w3.org/1999/xlink" x="0px" y="0px"
	 viewBox="0 0 56.7 56.7" style="enable-background:new 0 0 56.7 56.7;" xml:space="preserve">
<style type="text/css">
	.st0{fill:#FF584D;}
</style>
<title>Page 1</title>
<desc>Created with Sketch.</desc>
<g id="Page-1_1_">
	<g id="About---Company" transform="translate(-85.000000, -4104.000000)">
		<path id="Page-1" class="st0" d="M120.8,4109.7c-0.4,0-0.7,0-1.1,0.1h0l0,0c0,0,0,0,0,0c-0.1,0-0.3,0.1-0.4,0.1l-17.2,5.8v1
			c0,2.8,2.3,5.1,5.2,5.1c0.2,0,0.3,0,0.5,0l0,0l0.4-0.1c0,0,0.1,0,0.1,0l12.5-1.9c0,0,11,9.5,12.9,11.4c1.8,1.8,3.7,3.1,3.8,6.9
			h4.2v-24.3l-8.4,2l-10.4-5.5c-0.1,0-0.2-0.1-0.2-0.1l-0.1-0.1h0C122,4109.8,121.4,4109.7,120.8,4109.7z M85,4109.7l0,24.7h3.3
			l18.4,18.9c0.8,1,2,1.7,3.4,1.7c2.3,0,4.2-1.8,4.2-4.1c0-0.2,0-0.4,0-0.6c0.6,0.4,1.4,0.6,2.1,0.6c2.3,0,4.2-1.8,4.2-4.1
			c0-0.2,0-0.4,0-0.6c0.6,0.4,1.4,0.6,2.1,0.6c2.3,0,4.2-1.8,4.2-4.1c0-0.2,0-0.4,0-0.6c0.6,0.4,1.4,0.6,2.1,0.6
			c2.3,0,4.2-1.8,4.2-4.1c0-1.1-0.4-2.1-1.2-2.9l-0.1,0c-0.1-0.1-0.2-0.2-0.3-0.2l-12.4-11c0,0-7.7,1.2-10.6,1.7
			c-2.9,0.5-11.1-0.5-11.1-10.2c0-3,2.3-3.7,3.7-4.2c1.4-0.5,5.7-2,5.7-2H85z"/>
	</g>
</g>
</svg>
