<?xml version="1.0" encoding="utf-8"?>
<!-- Generator: Adobe Illustrator 22.0.1, SVG Export Plug-In . SVG Version: 6.00 Build 0)  -->
<svg version="1.1" id="Layer_1" xmlns="http://www.w3.org/2000/svg" xmlns:xlink="http://www.w3.org/1999/xlink" x="0px" y="0px"
	 viewBox="0 0 56.7 56.7" style="enable-background:new 0 0 56.7 56.7;" xml:space="preserve">
<style type="text/css">
	.st0{fill:#FF584D;}
</style>
<title>Page 1</title>
<desc>Created with Sketch.</desc>
<g id="Page-1_1_">
	<g id="About---Company" transform="translate(-82.000000, -3937.000000)">
		<path id="Page-1" class="st0" d="M110.3,3954.4c-0.5,0-1,0.1-1.5,0.2l6.1,6.1l0,0c1.2,1.2,1.9,2.8,1.9,4.6c0,3.6-2.9,6.5-6.5,6.5
			c-1.8,0-3.4-0.7-4.6-1.9l0,0l-6.1-6.1c-0.1,0.5-0.2,1-0.2,1.5c0,6,4.9,10.9,10.9,10.9c6,0,10.9-4.9,10.9-10.9
			S116.4,3954.4,110.3,3954.4 M110.3,3945.7c-2.3,0-4.5,0.4-6.6,1.2c0,0.2,0.1,0.4,0.1,0.6v2l1.4,1.4c1.6-0.6,3.3-0.9,5.1-0.9
			c8.4,0,15.3,6.8,15.3,15.3s-6.8,15.3-15.3,15.3s-15.3-6.8-15.3-15.3c0-1.8,0.3-3.5,0.9-5.1l-1.4-1.4h-2c-0.2,0-0.4,0-0.6-0.1
			c-0.7,2.1-1.2,4.3-1.2,6.6c0,10.8,8.8,19.6,19.6,19.6s19.6-8.8,19.6-19.6C130,3954.5,121.2,3945.7,110.3,3945.7 M86.3,3939.2
			c-1.2,0-2.2,1-2.2,2.2c0,0.6,0.2,1.2,0.7,1.6l2.8,2.8h-1.9c-1.4,0-2.1,1.7-1.1,2.6l4.8,4.8c0.8,0.8,1.9,1.3,3.1,1.3h3.8l12.4,12.4
			c0.8,0.9,2.2,0.9,3.1,0.1c0.9-0.8,0.9-2.2,0.1-3.1c0,0,0,0-0.1-0.1l-12.4-12.4v-3.8c0-1.2-0.5-2.3-1.3-3.1l-4.8-4.8
			c-1-1-2.6-0.3-2.6,1.1v1.9l-2.8-2.8C87.5,3939.4,86.9,3939.2,86.3,3939.2 M110.3,3937c-4,0-7.7,0.8-11.2,2.3l2.1,2.1
			c0.4,0.4,0.8,0.9,1.1,1.4c2.5-0.9,5.2-1.4,8-1.4c13.2,0,24,10.8,24,24s-10.8,24-24,24s-24-10.8-24-24c0-2.8,0.5-5.5,1.4-8
			c-0.5-0.3-1-0.7-1.4-1.1l-2.1-2.1c-1.5,3.4-2.3,7.2-2.3,11.2c0,15.6,12.7,28.3,28.3,28.3s28.3-12.7,28.3-28.3S126,3937,110.3,3937
			"/>
	</g>
</g>
</svg>
