<?xml version="1.0" encoding="utf-8"?>
<!-- Generator: Adobe Illustrator 22.0.1, SVG Export Plug-In . SVG Version: 6.00 Build 0)  -->
<svg version="1.1" id="Layer_1" xmlns="http://www.w3.org/2000/svg" xmlns:xlink="http://www.w3.org/1999/xlink" x="0px" y="0px"
	 viewBox="0 0 56.7 56.7" style="enable-background:new 0 0 56.7 56.7;" xml:space="preserve">
<style type="text/css">
	.st0{fill:#FF584D;}
</style>
<title>Page 1</title>
<desc>Created with Sketch.</desc>
<g id="Page-1_1_">
	<g id="About---Company" transform="translate(-84.000000, -3876.000000)">
		<path id="Page-1" class="st0" d="M112.3,3922.8c1.4,0,2.5,1.1,2.5,2.5c0,1.4-1.1,2.5-2.5,2.5s-2.5-1.1-2.5-2.5
			C109.9,3923.9,111,3922.8,112.3,3922.8z M112.3,3915.4c-4,0-7.6,2-9.8,4.9H90.2c-2.7,0-4.9,2.2-4.9,4.9v7.4h54.2v-7.4
			c0-2.7-2.2-4.9-4.9-4.9h-12.4C119.9,3917.4,116.4,3915.4,112.3,3915.4z M92.6,3883.4c1.3,0,2.4,1,2.4,2.3c0,0.1,0,0.2,0,0.3
			c-0.1,1.3-1.1,2.3-2.4,2.3c-1.4,0-2.5-1.1-2.5-2.5S91.3,3883.4,92.6,3883.4z M128.6,3876l-2.5,2.5h-6.4c-1.4,0-2.5,1.1-2.5,2.5
			v2.5H99.6c-1-2.9-3.7-4.9-6.9-4.9c-4.1,0-7.4,3.3-7.4,7.4c0,3.4,2.3,6.2,5.4,7.1l10.7,21.5c2.6-2.2,5.7-3.5,9.1-3.8l-11-22
			c0-0.1,0-0.2,0.1-0.2h17.7v2.5c0,1.4,1.1,2.5,2.5,2.5h6.4l2.5,2.5h10.9v-4.9h-8.8l-3.5-3.5v-2.9l3.5-3.5h8.8v-4.9H128.6z"/>
	</g>
</g>
</svg>
