<?xml version="1.0" encoding="utf-8"?>
<!-- Generator: Adobe Illustrator 22.0.1, SVG Export Plug-In . SVG Version: 6.00 Build 0)  -->
<svg version="1.1" id="Layer_1" xmlns="http://www.w3.org/2000/svg" xmlns:xlink="http://www.w3.org/1999/xlink" x="0px" y="0px"
	 viewBox="0 0 37 40" style="enable-background:new 0 0 37 40;" xml:space="preserve">
<style type="text/css">
	.st0{enable-background:new    ;}
	.st1{fill:#FF584D;}
</style>
<title>more</title>
<desc>Created with Sketch.</desc>
<g id="Page-1">
	<g id="Homepage" transform="translate(-701.000000, -917.000000)">
		<g id="more" transform="translate(638.000000, 913.000000)">
			<g class="st0">
				<path class="st1" d="M64.2,15V4.3h1.9l3.3,8l3.3-8h1.9V15h-1.3V6.2L69.6,15h-0.5l-3.6-8.8V15H64.2z"/>
				<path class="st1" d="M77.5,13.2c-0.3-0.6-0.5-1.3-0.5-2s0.2-1.4,0.5-2c0.3-0.6,0.8-1.1,1.3-1.5c0.6-0.4,1.3-0.5,2-0.5
					s1.4,0.2,2,0.5c0.6,0.4,1,0.9,1.3,1.5c0.3,0.6,0.5,1.3,0.5,2s-0.2,1.4-0.5,2c-0.3,0.6-0.7,1.1-1.3,1.5c-0.6,0.4-1.3,0.5-2,0.5
					s-1.4-0.2-2-0.5S77.8,13.8,77.5,13.2z M78.3,11.1c0,0.8,0.2,1.5,0.7,2.1c0.5,0.6,1.1,0.9,1.9,0.9c0.5,0,1-0.1,1.4-0.4
					c0.4-0.3,0.7-0.6,0.9-1.1c0.2-0.4,0.3-0.9,0.3-1.5c0-0.5-0.1-1-0.3-1.5c-0.2-0.4-0.5-0.8-0.9-1.1c-0.4-0.3-0.9-0.4-1.4-0.4
					s-1,0.1-1.4,0.4c-0.4,0.3-0.7,0.6-0.9,1.1C78.4,10.1,78.3,10.6,78.3,11.1z"/>
				<path class="st1" d="M87.1,15V7.3h1.2v1.2c0.3-0.4,0.7-0.8,1.2-1s0.9-0.4,1.4-0.4v1.2c-0.1,0-0.3,0-0.5,0
					c-0.4,0-0.8,0.1-1.2,0.4s-0.7,0.5-0.9,0.9V15H87.1z"/>
				<path class="st1" d="M92.4,11.1c0-0.7,0.2-1.4,0.5-2c0.3-0.6,0.8-1.1,1.4-1.5c0.6-0.4,1.2-0.5,2-0.5c0.8,0,1.4,0.2,2,0.6
					c0.6,0.4,1,0.9,1.3,1.5s0.4,1.3,0.4,2.1v0.3h-6.3c0,0.8,0.3,1.4,0.8,1.9c0.5,0.5,1.2,0.8,2,0.8c0.4,0,0.9-0.1,1.3-0.3
					s0.8-0.4,1.1-0.7l0.6,0.8c-0.8,0.8-1.8,1.2-3.1,1.2c-1.1,0-2.1-0.4-2.8-1.1C92.7,13.3,92.4,12.3,92.4,11.1z M93.6,10.6h5.1
					c0-0.3-0.1-0.6-0.2-0.9s-0.3-0.6-0.5-0.8s-0.5-0.5-0.8-0.6s-0.7-0.2-1.1-0.2c-0.4,0-0.8,0.1-1.1,0.2c-0.3,0.2-0.6,0.4-0.8,0.6
					c-0.2,0.3-0.4,0.5-0.5,0.8C93.7,10,93.6,10.3,93.6,10.6z"/>
			</g>
			<g class="st0">
				<path class="st1" d="M78.4,40.6h2.8v-9.2h1.2v9.2h2.8L81.8,44L78.4,40.6z"/>
			</g>
		</g>
	</g>
</g>
</svg>
