<?xml version="1.0" encoding="utf-8"?>
<!-- Generator: Adobe Illustrator 22.0.1, SVG Export Plug-In . SVG Version: 6.00 Build 0)  -->
<svg version="1.1" id="Layer_1" xmlns="http://www.w3.org/2000/svg" xmlns:xlink="http://www.w3.org/1999/xlink" x="0px" y="0px"
	 viewBox="0 0 116.8 37.7" style="enable-background:new 0 0 116.8 37.7;" xml:space="preserve">
<style type="text/css">
	.st0{fill:#FFFFFF;}
</style>
<g>
	<path class="st0" d="M0,0v37.7h116.8V0H0z M17.6,8.6C17,9,16.4,9.3,16,9.8c-3,3.1-5.6,6.8-5.6,11.1c0,3.7,2.4,1.4,2.4,1.4
		c0,0,0.1-0.1,0.1-0.1c1.4-1.5,2.5-3.2,3.9-4.8c0.6-0.7,1.7-1.7,2.1-1.5c1.3,0.6,2,1.9,1.5,3.4c-0.4,1.2-0.9,2.3-1.4,3.5
		c-1,2.7-2.1,5.3-3.1,8c-0.5,1.3-1.2,1.3-2.1,0.7c-1.2-0.9-1.7-2.2-1.1-3.6c0.4-1.2,0.9-2.4,1.3-3.4c-1.7-0.1-3.4,0.1-4.8-0.3
		c-2.3-0.8-3.2-3-2.7-5.7c0.8-4.6,3.2-8.3,6.9-11C15.1,6,17,5.4,19.2,6.2c0.7,0.2,1.5-0.1,2.2,0.2c0.6,0.3,1.5,1.2,1.4,1.4
		c-0.9,1.5-1.9,3-2.9,4.5c-1.3,0.9-1-0.6-1-0.6c0.1-0.8,0.2-1.6,0.3-2.5C19.5,7.5,17.6,8.6,17.6,8.6z M114.2,35.3H28.1V2.1h86.1
		V35.3z"/>
	<g>
		<path class="st0" d="M43,20.2v-1.7l6.1,0v5.3c-0.9,0.7-1.9,1.3-2.9,1.7s-2,0.6-3.1,0.6c-1.4,0-2.7-0.3-3.9-0.9
			c-1.2-0.6-2-1.5-2.6-2.6c-0.6-1.1-0.9-2.4-0.9-3.8c0-1.4,0.3-2.7,0.9-3.9c0.6-1.2,1.4-2.1,2.5-2.7s2.4-0.9,3.8-0.9
			c1,0,2,0.2,2.8,0.5c0.8,0.3,1.5,0.8,2,1.4c0.5,0.6,0.8,1.4,1.1,2.4l-1.7,0.5c-0.2-0.7-0.5-1.3-0.8-1.7s-0.8-0.8-1.4-1
			c-0.6-0.3-1.3-0.4-2-0.4c-0.9,0-1.6,0.1-2.3,0.4c-0.6,0.3-1.1,0.6-1.5,1c-0.4,0.4-0.7,0.9-0.9,1.4c-0.4,0.9-0.5,1.9-0.5,2.9
			c0,1.3,0.2,2.4,0.7,3.2s1.1,1.5,1.9,1.9s1.7,0.6,2.7,0.6c0.8,0,1.6-0.2,2.4-0.5c0.8-0.3,1.4-0.7,1.8-1v-2.7H43z"/>
		<path class="st0" d="M51.9,25.8V11.4h6.4c1.3,0,2.3,0.1,2.9,0.4s1.2,0.7,1.6,1.4c0.4,0.7,0.6,1.4,0.6,2.2c0,1-0.3,1.9-1,2.6
			c-0.7,0.7-1.7,1.1-3.1,1.3c0.5,0.2,0.9,0.5,1.1,0.7c0.6,0.5,1.1,1.1,1.6,1.9l2.5,3.9h-2.4l-1.9-3c-0.6-0.9-1-1.5-1.4-2
			c-0.4-0.5-0.7-0.8-1-1s-0.6-0.3-0.9-0.4c-0.2,0-0.6-0.1-1.1-0.1h-2.2v6.4H51.9z M53.8,17.8h4.1c0.9,0,1.5-0.1,2-0.3
			c0.5-0.2,0.9-0.5,1.1-0.9s0.4-0.8,0.4-1.3c0-0.7-0.2-1.2-0.7-1.7c-0.5-0.4-1.3-0.7-2.3-0.7h-4.6V17.8z"/>
		<path class="st0" d="M66.4,25.8V11.4h10.4v1.7h-8.5v4.4h8v1.7h-8v4.9h8.8v1.7H66.4z"/>
		<path class="st0" d="M79.8,25.8V11.4h10.4v1.7h-8.5v4.4h8v1.7h-8v4.9h8.8v1.7H79.8z"/>
		<path class="st0" d="M93.1,25.8V11.4h2l7.6,11.3V11.4h1.8v14.4h-2L95,14.5v11.3H93.1z"/>
	</g>
</g>
</svg>
